<?xml version="1.0" encoding="utf-8"?>
<!-- Generator: Adobe Illustrator 20.1.0, SVG Export Plug-In . SVG Version: 6.00 Build 0)  -->
<svg version="1.1" id="Calque_1" xmlns="http://www.w3.org/2000/svg" xmlns:xlink="http://www.w3.org/1999/xlink" x="0px" y="0px"
	 viewBox="0 0 696.3 149.3" style="enable-background:new 0 0 696.3 149.3;" xml:space="preserve">
<style type="text/css">
	.st0{enable-background:new    ;}
	.st1{fill:#FFFFFF;}
</style>
<title>slogan</title>
<g id="Calque_2">
	<g id="Calque_1-2">
		<g class="st0">
			<path class="st1" d="M56,99.3c0.3-0.1,0.9-0.3,1.6-0.5c4.1-1.4,7.2-1.8,9.3-1.2c1.1,0.4,1.1,1.1,0,2c-4.4,1.3-8.6,2.6-12.5,4.2
				c-4.7,10.3-10,17.8-15.7,22.6c-5.7,4.7-12.3,7.3-19.6,7.8c-2.5,0.1-5-1.1-7.4-3.8c-2.4-2.7-3.5-4.9-3.5-6.5
				c0-3.3,7.3-8.1,21.7-14.4c-2.2,0-4.6-0.7-7.1-2.1c-1.7-1-3.1-2.3-4.1-4.2c-1-1.8-1.5-3.6-1.5-5.2c0-1.5,0.6-3.5,1.8-6.2
				c1.2-2.7,3-6.1,5.4-10.3s4.2-7.1,5.2-8.8c1-1.7,2.8-4.5,5.3-8.5c1.4-2.2,2.2-4,2.6-5.3c0.3-1.4,0.2-2.3-0.2-2.7
				c-0.5-0.4-1.2-0.6-2.3-0.5c-2.6,0.2-5.4,1-8.5,2.7c-3.1,1.6-5.8,3.7-8.1,6.1c-2.3,2.4-3.9,5-4.8,7.8c-0.9,2.8-0.5,5.4,1.2,7.7
				c0.3,0.6,0,1-1,1.2c-2.2,0.4-4.6-0.1-7.3-1.4c-2.8-1.4-4.3-3.2-4.5-5.4c-0.2-3.3,0.9-6.5,3.2-9.4c2.3-2.9,5.2-5.3,8.8-7.1
				c3.6-1.8,7.2-3.2,10.9-4.3c3.7-1.1,7.2-1.7,10.3-1.9c1.9-0.1,3.6-0.1,5.1,0c1.5,0.1,3.1,0.4,4.7,1c1.6,0.6,2.7,1.3,3.4,2.4
				c0.7,1,0.9,2.5,0.6,4.5c-0.3,2-1.3,4.3-3,7.1c-3.8,6-7.9,12.8-12.3,20.5c-4.5,7.7-6.8,12.3-7,14.1c-0.3,2.7,0.6,3.9,2.7,3.8
				c3.2-0.2,7.4-3.3,12.5-9.4S52,81.9,56.8,73.3c5.2-10.2,9.1-17,11.8-20.3c2.3-0.8,4.5-0.8,6.6,0.1c0.8,0.4,1.5,0.8,2.1,1.2
				c0.6,0.5,0.9,0.9,1.1,1.3c0.2,0.4,0.2,0.7,0.1,0.9c-6.6,10-13.2,22.1-19.6,36.6L56,99.3z M22,119.8c-4.4,3.1-6.6,5.6-6.5,7.3
				l0,0.1c0,0.1,0.1,0.3,0.2,0.4l0.3,0.5c0.1,0.2,0.3,0.3,0.5,0.4c0.2,0.1,0.5,0.1,0.8,0.1c3.5-0.2,7-1.7,10.5-4.5
				c3.5-2.8,7.3-6.9,11.3-12.3c0.9-1.2,1.2-1.8,1-1.8c-0.2,0-0.5,0-1,0.2C32.1,113.4,26.4,116.7,22,119.8z M38,105.9
				c2.1-0.8,4.1-1.6,6.2-2.4l5.5-11.2c0.7-1.5,0.9-2.1,0.6-2.1c-0.3,0.1-1,1-2,2.7C44.4,99.1,41,103.4,38,105.9z"/>
			<path class="st1" d="M91.2,70.4c1.5-0.4,3.1-0.1,4.9,1.1c7.4,0.8,12.6-0.2,15.8-3c0.4-0.4,0.7-0.3,0.9,0.1
				c0.3,0.7-0.6,2.1-2.6,4.2c-2.4,2.5-6.2,3.9-11.3,4.2c-0.1,4.5-1.6,9.9-4.6,16.2c-3,6.3-6.5,11.8-10.7,16.3
				c-4.2,4.6-7.8,6.6-11,6.1c-0.7-0.1-1.3-0.3-1.7-0.6c-1.9-0.7-3.5-1.8-4.9-3.3s-2.2-3.1-2.4-4.8c-0.4-3.9,0.6-8.8,3.1-14.5
				c2.5-5.8,5.4-10.8,8.8-15.2s6.2-6.8,8.6-7.4c1-0.3,1.7-0.4,1.9-0.5C87.9,69.3,89.6,69.6,91.2,70.4z M73.6,110.3
				c1.3-0.1,3.4-2.3,6.3-6.5c2.8-4.3,5.5-9.1,7.9-14.6c2.4-5.4,3.7-9.6,3.9-12.6c-1.3-0.3-2.4-0.6-3.2-0.9c-2.8,3-6.3,8.5-10.3,16.5
				s-6,13.3-5.8,16.1C72.3,109.7,72.8,110.3,73.6,110.3z"/>
			<path class="st1" d="M113.7,68.1c1.3-0.2,2.3-0.1,3,0.1c0.9,0.2,1.7,0.6,2.4,1.1c0.7,0.5,0.9,1,0.7,1.4
				c-2.8,4.2-5.7,9.2-8.7,15.2c-3,6-4.7,10.7-5.3,14.2c0,0.4,0,0.6,0.1,0.7c0.1,0.1,0.3,0.1,0.7-0.1c1.3-1.3,2.7-2.9,4.1-4.7
				c1.4-1.8,2.9-3.8,4.4-6.1c1.5-2.2,2.7-4.1,3.7-5.7c1-1.6,2.2-3.6,3.6-5.9c1.4-2.4,2.3-3.9,2.7-4.5c1.2-2.4,2.3-4.3,3.2-5.7
				c1.2-0.9,2.9-0.9,5,0c0.8,0.4,1.5,0.8,2.1,1.2c0.6,0.5,0.9,0.9,1.1,1.3c0.2,0.4,0.2,0.7,0.1,0.9c-0.8,1.2-1.7,2.8-2.9,4.8
				c-1.2,2-3,5.9-5.6,11.6c-2.5,5.7-4.4,11.1-5.6,16.2c-0.1,0.6-0.1,1,0.2,1.2c0.2,0.2,0.8,0,1.6-0.5c0.9-0.8,1.9-1.9,3.1-3.4
				c1.2-1.5,2.6-3.5,4.2-6c1.6-2.5,2.9-4.4,3.8-5.8c0.9-1.4,2.2-3.6,4-6.5l2.7-4.4c0.3-0.5,0.7-0.8,1-0.9s0.5,0.1,0.6,0.5
				c0.1,0.4,0,0.7-0.2,1.1c-10.6,21.6-18.3,32.5-23.2,32.8c-1.6,0.1-3-0.3-4.2-1.3c-1.2-1-1.9-2.5-2-4.5c-0.2-3,0.7-7.4,2.6-12.9
				c0.1-0.4,0.1-0.6,0-0.7c-0.1-0.1-0.2-0.2-0.3-0.1c-0.1,0-0.3,0.1-0.4,0.3c-5.5,9.6-9.6,14.8-12.5,15.7l-0.1-0.1l-0.1,0.1
				c-1.4,0.4-2.8,0.1-4.2-0.9c-1.4-1.1-2.2-2.9-2.3-5.4c-0.1-3,0.6-6.6,2.2-10.7c1.5-4.1,3.2-7.8,4.9-10.9c1.7-3.1,4-7,6.9-11.7
				C111.5,68.6,112.5,68.2,113.7,68.1z"/>
			<path class="st1" d="M181.9,80.5l-9.1,0.5c-0.8,0-0.8-0.8-0.1-2.5c0.9-2,1.9-3.1,3.1-3.3l9.4-0.5l5.4-9.7
				c0.6-1.1,2.1-1.6,4.4-1.5c1.5,0.2,2.3,0.6,2.2,1.2l-5.1,9.7c4.8-0.3,8.4-0.6,10.7-1c0.9-0.1,1.3,0.1,1.1,0.7
				c-0.3,1.1-1.7,2.4-3.9,4c-1,0.6-1.8,1-2.3,1.2c-1.2,0.2-4.1,0.5-8.5,0.8c-3.5,6.7-5.5,10.5-6,11.4c-0.5,0.7-1.8,0.8-4,0.2
				c-1.7-0.4-2.6-1-2.5-1.8c0-0.2,0-0.3,0.2-0.5L181.9,80.5z"/>
			<path class="st1" d="M276.1,79.1c0.9-1.5,1.1-2.1,0.7-2c-0.5,0.2-1.2,1.1-2.1,2.6c-5.4,8.5-8.8,13.8-10.4,15.8
				c-5.7,7.6-10.9,10.7-15.4,9.4c-0.6-0.2-1.2-0.5-1.8-0.8c-1.8-1-3.7-2.7-5.5-5.1c-1.9-2.4-2.8-4.3-2.9-5.9c0-1.6,0.5-3.8,1.6-6.5
				c1.1-2.8,2.7-6,4.9-9.7c2.1-3.7,4-6.9,5.6-9.6c1.6-2.7,3.7-6,6.2-9.8c2.5-3.8,3.9-6.1,4.3-6.7c1.4-2.2,2.2-4,2.6-5.3
				c0.3-1.4,0.2-2.3-0.2-2.7c-0.5-0.4-1.2-0.6-2.3-0.5c-2.6,0.2-5.4,1-8.5,2.7c-3.1,1.6-5.8,3.7-8.1,6.1c-2.3,2.4-3.9,5-4.8,7.8
				c-0.9,2.8-0.5,5.4,1.2,7.7c0.3,0.6,0,1-1,1.2c-2.2,0.4-4.6-0.1-7.3-1.4c-2.8-1.4-4.3-3.2-4.5-5.4c-0.2-3.3,0.9-6.5,3.2-9.4
				c2.3-2.9,5.2-5.3,8.8-7.1c3.6-1.8,7.2-3.2,10.9-4.3c3.7-1.1,7.2-1.7,10.3-1.9c1.9-0.1,3.6-0.1,5.1,0s3.1,0.4,4.7,1
				c1.6,0.6,2.7,1.3,3.4,2.4c0.7,1,0.9,2.5,0.6,4.5c-0.3,2-1.3,4.3-3,7.1c-15.8,24.8-23.8,39.2-24.3,43.1c-0.3,2.7,0.6,3.9,2.7,3.8
				c3.1-0.2,8-4.6,14.6-13.2c6.6-8.6,12.6-17.6,17.8-26.8c5.2-10.2,9.1-17,11.8-20.3c2.3-0.8,4.5-0.8,6.6,0.1
				c0.8,0.4,1.5,0.8,2.1,1.2c0.6,0.5,0.9,0.9,1.1,1.3s0.2,0.7,0.1,0.9c-5.7,8.6-12.3,21.4-20,38.5l-0.9,2c-3.9,9-7,17.1-9.2,24.2
				l6.2-6.2c0.8-0.7,1.5-1,2-0.9c0.3,0,0.3,0.4-0.1,1l-8.5,13.4c-0.8,0.9-1.4,0.4-1.6-1.3c-1.4,0.8-3.6,0.4-6.5-1
				c-2.9-1.5-4.1-3.1-3.5-4.8c0.4-1.6,1-3.5,1.8-5.6c0.8-2.1,1.6-4,2.4-5.6c0.8-1.6,1.8-3.8,3.1-6.4c1.3-2.6,2.2-4.6,2.8-5.8
				L276.1,79.1z"/>
			<path class="st1" d="M311.5,55.7c2.2,0.7,3.4,1.7,3.6,2.8c-1.4,1.6-2.4,3.2-2.8,4.8c-0.5,1.6-0.8,3.6-0.9,6
				c-0.1,0.9-0.1,3.4,0,7.4c0.1,4,0.1,6.5,0,7.4c-0.1,1.6-0.3,3.3-0.5,5c-0.3,1.7-0.8,3.6-1.4,5.7c-0.7,2.1-1.7,3.9-3.1,5.2
				c-1.4,1.4-3.1,2.1-5.1,2.2c-1.1,0.1-2.1,0-3.1-0.2c-1-0.2-1.8-0.5-2.6-0.8c-0.7-0.3-1.5-0.8-2.3-1.4c-0.8-0.6-1.4-1.1-1.9-1.6
				c-0.5-0.4-1-1-1.7-1.9c-0.6-0.8-1.1-1.4-1.3-1.7c-0.2-0.3-0.6-0.9-1.1-1.7l-0.7-1.2c-1-1.5-1.6-3.2-1.6-5.1
				c0-1.5,0.5-1.6,1.7-0.2c0.1,0.1,0.1,0.1,0.2,0.3c1.7,2.5,3.5,4.7,5.4,6.5c2,1.9,3.5,2.7,4.5,2.7c2.8-0.2,4.3-3.6,4.7-10.4
				c0.2-3.8,0.1-8.3-0.2-13.4c-0.1-1.6-0.3-2.3-0.5-2.3s-0.7,0.8-1.4,2.2c-1.3,2.6-2.3,3.9-3.1,3.8c-0.6,0-0.7-0.5-0.4-1.3l0.2-0.4
				c3.4-5.8,5.6-9.7,6.5-11.7c0.7-2.3,1.8-4.4,3.1-6.2C307.4,55.3,309.3,55,311.5,55.7z"/>
			<path class="st1" d="M375.8,73.2c-1.2,1.5-2.5,2.5-3.9,3c-0.1,0.1-0.2,0.1-0.3,0.1c-2.1,0.4-10.8,1.1-26,2
				c-0.8,0-0.8-0.8-0.1-2.6c0.9-2,1.9-3.1,3.1-3.3c0.8-0.2,5-0.4,12.6-0.8s12.2-0.6,13.7-0.7C376.8,70.8,377.1,71.6,375.8,73.2z
				 M382.3,60.5c-0.3,1.1-1.7,2.4-3.9,4c-1,0.6-1.8,1-2.3,1.2c-1.3,0.3-10.1,0.9-26.2,1.8c-0.8,0-0.8-0.8-0.1-2.6
				c0.9-2,1.9-3.1,3.1-3.3c1.7-0.2,6.3-0.4,13.8-0.8c7.5-0.3,12.3-0.7,14.6-1.2C382.1,59.7,382.5,59.9,382.3,60.5z"/>
			<path class="st1" d="M414.5,72.7c3.1-3.9,5.7-7.1,7.7-9.5c9.3-11.1,17.7-19.9,25.1-26.6c0.1-0.1,0.5-0.1,1.2,0.1
				c0.7,0.2,1.4,0.6,2.1,1.2c0.7,0.5,1,1.1,1,1.7c-7.4,7.3-14.9,16-22.4,26.1l-4.1,5.6c-0.2,0.3-0.4,0.6-0.5,0.8
				c-0.1,0.2-0.1,0.4-0.1,0.5c0,0.1,0.1,0.2,0.1,0.3c0,0.1,0.1,0.2,0.3,0.2c0.2,0,0.3,0.1,0.4,0.1c0.1,0,0.2,0,0.5,0.1l0.4,0
				c5.1,0.1,9.4-0.1,12.8-0.6c1.2-0.1,2-0.8,2.3-2.1l2-5.6c4.1-11,8.1-20.3,11.9-27.9c0.8-1.6,1.3-2.5,1.4-2.7
				c-2.9-1.8-7.1-2.6-12.5-2.3c-3.8,0.2-7.5,1.2-11.2,2.8c-3.6,1.7-6.6,3.7-8.8,6.1c-2.2,2.4-3.7,5.1-4.3,7.9
				c-0.6,2.9,0.1,5.6,2.3,8.1c0.6,0.8,0.2,1.2-1,1.4c-2.2,0.1-4.6-0.7-7-2.4c-2.8-2-4.3-4.6-4.5-7.7c-0.2-3.3,0.8-6.4,2.9-9.1
				c2.1-2.7,4.9-4.9,8.3-6.5c3.4-1.6,6.9-2.9,10.4-3.7c3.5-0.9,6.9-1.4,10.2-1.6c1.7-0.1,3.7-0.1,6,0.1c2.3,0.2,5,0.6,8,1.1
				c3,0.6,5.6,1.6,7.9,3.2c2.3,1.6,3.6,3.5,4.1,5.7c-4.3,6.5-8.4,14.9-12.3,25.2c-3.9,10.3-7.4,20.6-10.3,31l2.4-2.5
				c0.4-0.4,0.9-0.7,1.6-0.9c0.5-0.1,0.6,0.2,0.2,1l-7.3,12.5l-0.5,0.9c-0.7,0.7-1.2,0.5-1.5-0.6c-1.9-0.1-3.8-0.7-5.7-1.8
				c-1.9-1.1-2.6-2.3-2.2-3.6c2.4-8.6,4.5-15.4,6.5-20.5c0.2-0.8,0.2-1.2,0.1-1.3c-0.2-0.1-0.5-0.1-1.2,0c-4.4,0.6-9.7,1-15.7,1.4
				c-1.1,0.1-1.9,0.5-2.5,1.4c-0.9,1.4-2,3.1-3.4,5.1c-1.3,2-2.4,3.7-3.3,5c-0.9,1.3-1.6,2.5-2,3.4c-1.4,0.7-3.1,0-5-2
				s-2.2-3.6-1.1-4.8c2.5-3.7,4.6-6.7,6.4-9.1c-1.6-2-2.3-3.5-2.1-4.6c0.1-0.5,0.5-0.7,1.2-0.6C410.3,72.3,411.9,72.5,414.5,72.7z"
				/>
			<path class="st1" d="M509.6,46.3c1.6,1.7,2.3,3.6,2,5.7c-0.1,0.6-0.3,1.1-0.5,1.5c-5.1,11-10.2,19.8-15.5,26.6
				c-5.3,6.7-9.3,10.5-12,11.4c-1.6,0.6-3.2,0.3-4.8-0.8c-1.6-1.1-2.4-2.9-2.4-5.5c-0.1-1,0-2.3,0.2-3.9c-5,6.6-9,10.3-12,11.3
				c-1.4,0.4-2.8,0.1-4.2-0.9c-1.4-1.1-2.1-2.9-2.2-5.4c0-4.8,1.2-10.9,3.9-18.4s5.7-14.1,9.3-19.8c0.6-0.6,1.5-0.9,2.7-1.1
				c1.3-0.2,2.3-0.1,3,0.1c0.9,0.2,1.7,0.6,2.4,1.1c0.7,0.5,0.9,1,0.7,1.4c-2.3,3.3-4.9,8.8-7.8,16.5c-2.9,7.7-4.7,13.6-5.4,17.7
				c0,0.5,0.1,0.9,0.4,1.3c0.3,0.3,0.6,0.2,1.1-0.2c3.7-4,7-8,9.8-12c2.6-9.4,6.3-18.1,11.3-25.9c0.6-0.6,1.5-0.9,2.7-1.1
				c1.3-0.2,2.3-0.1,3,0.1c0.8,0.2,1.6,0.5,2.3,1c0.7,0.5,0.9,1,0.8,1.5c-1.6,5.1-3.9,9.6-6.7,13.4l-0.5,0.6l-0.5,0.6
				c-2.5,6.1-4.3,12.7-5.5,19.7c-0.1,0.7,0.1,1.2,0.4,1.4c0.3,0.2,0.9,0.1,1.7-0.4c3.7-4,7.3-9.7,10.7-17c3.4-7.3,6.3-14.3,8.6-21
				C507.2,44.7,508.2,44.8,509.6,46.3z"/>
			<path class="st1" d="M532.3,44c1.7,0.4,3.1,1.2,4.4,2.3c1.2,1.1,2.1,2.2,2.6,3.1s0.7,1.5,0.6,1.9c-0.8,3.6-2.8,7.4-6.2,11.3
				c-3.3,3.9-6.1,6.2-8.3,6.9c-1.9,0.5-3.6,0.5-5.1-0.1c-1.1-0.5-2,0-2.6,1.3c-1.8,4.2-2.6,7.5-2.4,9.9c0.2,2.1,1.2,3.1,2.7,3.1
				c1.2,0,2.6-0.4,4-1.2c1.4-0.8,2.9-2,4.4-3.5c1.5-1.5,2.9-3.1,4.3-4.6c1.3-1.5,2.8-3.4,4.3-5.6c1.5-2.2,2.8-3.9,3.7-5.3
				c0.9-1.3,2-3,3.2-4.9c1.2-1.9,1.9-3,2.1-3.3c0.3-0.5,0.7-0.8,1-0.9c0.4,0,0.6,0.2,0.7,0.8c0,0.3-0.1,0.6-0.2,0.8
				c-3.5,6.9-7.2,13-11.2,18.3c-4,5.3-7.5,9.2-10.4,11.6c-3,2.4-5.4,3.8-7.3,4c-2.8,0.4-5.2-0.3-7.2-2c-2-1.8-3.2-4-3.4-6.8
				c-0.3-3,0.3-6.5,1.7-10.7c1.4-4.2,3.2-8.1,5.4-11.7c2.2-3.6,4.5-6.8,7-9.7c2.5-2.8,4.6-4.5,6.4-5.1
				C528.4,43.4,530.3,43.4,532.3,44z M528.1,53.4c-2.4,3-4.7,6.6-7,10.7c-0.3,0.4-0.4,0.7-0.3,1.1c0.1,0.4,0.3,0.6,0.7,0.6
				c1.3,0,3.3-1.6,6.1-4.8c2.7-3.2,4.8-6.7,6.2-10.3c0.5-1.4,0.4-2.1-0.3-2C532.2,48.8,530.4,50.3,528.1,53.4z"/>
			<path class="st1" d="M556.6,41.4c2.2,0.7,3.4,1.7,3.6,2.8c-1.4,1.6-2.4,3.2-2.8,4.8c-0.5,1.6-0.8,3.6-0.9,6
				c-0.1,0.9-0.1,3.4,0,7.4c0.1,4,0.1,6.5,0,7.4c-0.1,1.6-0.3,3.3-0.5,5c-0.3,1.7-0.8,3.6-1.4,5.7c-0.7,2.1-1.7,3.9-3.1,5.2
				c-1.4,1.4-3.1,2.1-5.1,2.2c-1.1,0.1-2.1,0-3.1-0.2s-1.8-0.5-2.6-0.8c-0.7-0.3-1.5-0.8-2.3-1.4c-0.8-0.6-1.4-1.1-1.9-1.6
				c-0.5-0.4-1-1-1.7-1.9c-0.6-0.8-1.1-1.4-1.3-1.7s-0.6-0.9-1.1-1.7l-0.7-1.2c-1-1.5-1.6-3.2-1.6-5.1c0-1.5,0.5-1.6,1.7-0.2
				c0.1,0.1,0.1,0.1,0.2,0.3c1.7,2.5,3.5,4.7,5.4,6.5c2,1.9,3.5,2.8,4.5,2.7c2.8-0.2,4.3-3.6,4.7-10.4c0.2-3.8,0.1-8.3-0.2-13.4
				c-0.1-1.6-0.3-2.3-0.5-2.3s-0.7,0.8-1.4,2.2c-1.3,2.6-2.3,3.9-3.1,3.8c-0.6,0-0.7-0.5-0.4-1.3l0.2-0.4c3.4-5.8,5.6-9.7,6.5-11.7
				c0.7-2.3,1.8-4.4,3.1-6.2C552.5,41,554.4,40.7,556.6,41.4z"/>
			<path class="st1" d="M586.9,41.5c1.7-0.4,3.4-0.1,5,1.2c1.7,1.2,2.6,2.6,2.7,4.1c0.2,4.3-1.1,9.7-4,16.3
				c-2.9,6.6-6.6,12.3-10.9,17.2c-4.3,4.8-8.1,7-11.4,6.6c-0.7-0.1-1.3-0.3-1.7-0.6c-1.9-0.7-3.5-1.8-4.9-3.3s-2.2-3.1-2.4-4.8
				c-0.4-3.9,0.6-8.8,3.1-14.5c2.5-5.8,5.4-10.8,8.8-15.2c3.4-4.3,6.2-6.8,8.6-7.4c1-0.3,1.7-0.4,1.9-0.5
				C583.7,40.3,585.4,40.7,586.9,41.5z M569.4,81.3c1.4-0.1,3.6-2.4,6.6-7c3-4.6,5.7-9.7,8.1-15.4c2.4-5.7,3.5-9.8,3.4-12.4
				c0-0.8-0.5-1.2-1.2-1.2c-1.2,0.1-3.3,2.5-6.3,7.2c-3,4.7-5.8,9.8-8.3,15.4c-2.5,5.5-3.7,9.4-3.6,11.5
				C568.1,80.7,568.5,81.4,569.4,81.3z"/>
			<path class="st1" d="M593.5,84.7c-1.4-0.1-2.8-0.7-4.3-1.6c-1.4-0.9-2-1.9-1.8-2.8c1.9-6,5.9-16.1,12.1-30.1
				c2.2-4.7,3.8-8,4.9-9.8c1.3-1,3-1,5-0.1c0.8,0.4,1.6,0.8,2.1,1.2c0.6,0.5,0.9,0.9,1.1,1.3c0.1,0.4,0.2,0.7,0.1,0.9
				c-2,3.8-4.2,8.2-6.6,13.4c-0.2,0.5-0.2,0.8,0.1,0.8c0.2-0.1,0.4-0.3,0.8-0.7c8.2-12,14.8-18.2,19.7-18.5c1.9-0.1,3.5,0.2,4.8,1.1
				c1.3,0.8,1.7,1.7,1.3,2.7c-3.1,4-6,8.7-8.9,14.3c-0.3,0.5-0.2,0.8,0.2,0.9c0.4,0,0.9-0.3,1.4-1c8.4-12.4,15.1-18.8,20-19
				c1.9-0.1,3.5,0.2,4.8,1.1c1.3,0.8,1.7,1.7,1.3,2.7c-0.9,1.2-2,2.9-3.4,5.1s-3.5,6.2-6.3,12.2c-2.8,6-4.9,11.5-6,16.6
				c-0.1,0.6-0.1,1,0.2,1.2c0.2,0.2,0.8,0,1.6-0.5c0.7-0.6,1.4-1.4,2.3-2.4c0.9-1,1.8-2.3,2.9-3.8c1.1-1.5,2.1-2.9,2.9-4.2
				c0.9-1.3,1.9-2.9,3.2-4.9c1.3-2,2.2-3.5,2.8-4.5c0.6-0.9,1.5-2.4,2.7-4.3c1.2-1.9,1.8-3,1.9-3.1c0.3-0.6,0.7-0.9,1-0.9
				s0.6,0.2,0.6,0.5c0.1,0.4,0,0.7-0.2,1.1c-5.4,11-10.3,19.4-14.6,25.2c-4.3,5.8-7.7,8.7-10.1,8.9c-1.5,0.1-2.9-0.4-4.2-1.5
				c-1.3-1.1-2-2.7-2.1-4.7c-0.2-2.9,0.8-7,2.9-12.2c2.1-5.2,4.6-10.5,7.6-15.8c1.6-2.6,2.1-3.9,1.5-4.1c-0.2-0.1-0.8,0.3-1.6,1.2
				c-3.6,4-7.8,9.7-12.4,17.2c-4.6,7.5-7.8,13.5-9.6,18l-0.1,0.7c-0.3,1.3-1.6,1.6-4,0.8c-2.4-0.7-3.9-1.9-4.5-3.3
				c-0.3-0.5-0.3-1-0.2-1.6c0.8-2.9,3.4-9.2,7.8-18.9l4.6-9c1.5-3,1.8-4.3,1.1-4.1c-0.3,0.1-0.8,0.5-1.4,1.2
				c-3.6,3.9-7.7,9.6-12.3,17.1c-4.6,7.5-7.7,13.6-9.5,18.3l-0.2,0.8C595.8,84.5,594.9,84.8,593.5,84.7z"/>
			<path class="st1" d="M674.4,35.7c1.7,0.4,3.1,1.2,4.4,2.3c1.2,1.1,2.1,2.2,2.6,3.1s0.7,1.5,0.6,1.9c-0.8,3.6-2.8,7.4-6.2,11.3
				c-3.3,3.9-6.1,6.2-8.3,6.9c-1.9,0.5-3.6,0.5-5.1-0.1c-1.1-0.5-2,0-2.6,1.3c-1.8,4.2-2.6,7.5-2.4,9.9c0.2,2.1,1.2,3.1,2.7,3.1
				c1.2,0,2.6-0.4,4-1.2s2.9-2,4.4-3.5c1.5-1.5,2.9-3.1,4.3-4.6c1.3-1.5,2.8-3.4,4.3-5.6s2.8-3.9,3.7-5.3c0.9-1.3,2-3,3.2-4.9
				c1.2-1.9,1.9-3,2.1-3.3c0.3-0.5,0.7-0.8,1-0.9c0.4,0,0.6,0.2,0.7,0.8c0,0.3-0.1,0.6-0.2,0.8c-3.5,6.9-7.2,13-11.2,18.3
				c-4,5.3-7.5,9.2-10.4,11.6c-3,2.4-5.4,3.8-7.3,4c-2.8,0.4-5.2-0.3-7.2-2c-2-1.8-3.2-4-3.4-6.8c-0.3-3,0.3-6.5,1.7-10.7
				s3.2-8.1,5.4-11.7s4.5-6.8,7-9.7c2.5-2.8,4.6-4.5,6.4-5.1C670.5,35.1,672.4,35.1,674.4,35.7z M670.2,45.1c-2.4,3-4.7,6.6-7,10.7
				c-0.3,0.4-0.4,0.7-0.3,1.1c0.1,0.4,0.3,0.6,0.7,0.6c1.3,0,3.3-1.6,6.1-4.8c2.7-3.2,4.8-6.7,6.2-10.3c0.5-1.4,0.4-2.1-0.3-2
				C674.3,40.5,672.5,42.1,670.2,45.1z"/>
		</g>
	</g>
</g>
</svg>
